<?xml version="1.0" encoding="iso-8859-1"?>
<!-- Generator: Adobe Illustrator 19.0.0, SVG Export Plug-In . SVG Version: 6.00 Build 0)  -->
<svg version="1.1" id="Capa_1" xmlns="http://www.w3.org/2000/svg" xmlns:xlink="http://www.w3.org/1999/xlink" x="0px" y="0px"
	 viewBox="0 0 511.999 511.999" style="enable-background:new 0 0 511.999 511.999;" xml:space="preserve">
<path style="fill:#787780;" d="M60.944,486.309L39.713,507.54c-5.944,5.944-15.286,5.945-21.231,0
	c-5.945-5.945-5.944-15.287,0-21.231l21.231-21.231c5.945-5.945,15.286-5.945,21.231,0C66.89,471.023,66.89,480.364,60.944,486.309z
	"/>
<path style="fill:#57555C;" d="M60.944,486.309L39.713,507.54c-5.944,5.944-15.286,5.945-21.231,0l42.462-42.462
	C66.89,471.023,66.89,480.364,60.944,486.309z"/>
<path style="fill:#19DEC1;" d="M124.638,443.847l-42.462-42.462c-5.945-5.945-15.286-5.945-21.231,0l-21.232,21.23
	c-17.621,17.621-17.622,46.071,0,63.694s46.073,17.621,63.694,0l21.231-21.231C130.583,459.132,130.583,449.792,124.638,443.847z"/>
<path style="fill:#17CEB4;" d="M124.638,465.078l-21.231,21.231c-17.621,17.621-46.071,17.622-63.694,0l63.694-63.694l21.231,21.231
	C130.583,449.792,130.583,459.132,124.638,465.078z"/>
<path style="fill:#EFE6DE;" d="M199.585,432.594l-32.485,32.485c-17.621,17.621-46.071,17.622-63.694,0l-55.413-55.413
	c-10.403-10.403-14.861-24.629-12.74-39.066c2.549-14.437,11.254-26.54,24.206-33.121c37.367-18.684,76.916-48.893,103.668-79.465
	c3.398-3.823,28.026,14.012,31.21,9.979c3.185-4.035-15.498-29.512-12.738-33.97c20.807-30.574,35.456-66.03,44.799-102.973
	l6.367-25.901c1.486-5.31,5.521-9.343,10.616-11.04c5.096-1.274,10.828,0.212,14.649,4.034l84.925,84.925
	c4.034,4.034,5.308,9.979,3.61,15.498c-15.924,47.345-38.004,92.781-65.605,134.82c-2.973,4.67-27.175-12.314-30.361-7.857
	c-2.76,4.035,15.924,29.087,12.951,32.91C245.929,382.427,220.604,411.575,199.585,432.594z"/>
<path style="fill:#DFCCBF;" d="M199.585,432.594l-32.485,32.485c-17.621,17.621-46.071,17.622-63.694,0l-21.23-21.231l260.78-260.78
	c4.034,4.034,5.308,9.979,3.61,15.498c-15.924,47.345-38.004,92.781-65.605,134.82c-2.973,4.67-27.175-12.314-30.361-7.857
	c-2.76,4.035,15.924,29.087,12.951,32.91C245.929,382.427,220.604,411.575,199.585,432.594z"/>
<path style="fill:#B7E0F6;" d="M263.552,358.436L163.128,258.013c3.398-3.823,6.794-7.219,9.978-11.254
	c3.185-4.035,5.733-8.28,8.493-12.738l99.363,99.363C275.442,341.875,269.709,350.156,263.552,358.436z"/>
<path style="fill:#C8AD92;" d="M263.552,358.436l-47.983-47.983l21.231-21.231l44.162,44.162
	C275.442,341.875,269.709,350.156,263.552,358.436z"/>
<path style="fill:#19DEC1;" d="M249.751,276.272c-0.423-10.617-4.67-21.231-12.951-29.512c-17.622-17.622-46.071-17.622-63.694,0
	c-17.621,17.621-17.622,46.071,0,63.694c8.28,8.28,18.896,12.526,29.512,12.951c12.314,0.849,24.84-3.609,34.182-12.951
	C246.142,301.112,250.601,288.585,249.751,276.272z"/>
<path style="fill:#EFE6DE;" d="M449.113,140.604l-84.925,84.925l-31.847-10.616l-95.54-95.54c-17.622-17.622-17.621-46.073,0-63.694
	l42.462-42.462c17.622-17.622,46.071-17.622,63.694,0l95.54,95.54L449.113,140.604z"/>
<g>
	<path style="fill:#DFCCBF;" d="M258.031,34.448L406.65,183.066l-42.462,42.462l-31.847-10.616l-95.54-95.54
		c-17.622-17.622-17.621-46.073,0-63.694L258.031,34.448z"/>
	<polygon style="fill:#DFCCBF;" points="467.797,206.845 427.882,246.76 374.803,257.375 332.34,214.913 438.497,108.757 
		480.96,151.219 	"/>
</g>
<polygon style="fill:#C8AD92;" points="449.113,225.529 427.882,246.76 374.803,257.375 332.34,214.913 385.418,161.835 "/>
<path style="fill:#787780;" d="M491.575,267.991c-5.944,5.944-15.286,5.945-21.231,0l-42.462-42.462
	c-5.945-5.945-5.944-15.287,0-21.231c5.945-5.945,15.286-5.945,21.231,0l42.462,42.462
	C497.521,252.705,497.521,262.046,491.575,267.991z"/>
<path style="fill:#57555C;" d="M491.575,267.991c-5.944,5.944-15.286,5.945-21.231,0l-42.462-42.462
	c-5.945-5.945-5.944-15.287,0-21.231L491.575,267.991z"/>
<path style="fill:#EFE6DE;" d="M489.028,228.076l-37.367,37.367c-8.068,8.068-19.957,11.039-30.784,7.43l-46.073-15.498
	L480.96,151.219l15.5,46.071C500.067,208.119,497.096,220.009,489.028,228.076z"/>
<path style="fill:#DFCCBF;" d="M470.344,246.76l-18.684,18.684c-8.068,8.068-19.957,11.039-30.784,7.43l-46.073-15.498
	l53.078-53.078L470.344,246.76z"/>
<path style="fill:#17CEB4;" d="M236.8,310.454c-9.342,9.342-21.868,13.8-34.182,12.951l47.133-47.133
	C250.601,288.585,246.142,301.112,236.8,310.454z"/>
<g>
</g>
<g>
</g>
<g>
</g>
<g>
</g>
<g>
</g>
<g>
</g>
<g>
</g>
<g>
</g>
<g>
</g>
<g>
</g>
<g>
</g>
<g>
</g>
<g>
</g>
<g>
</g>
<g>
</g>
</svg>
